<svg xmlns="http://www.w3.org/2000/svg" viewBox="0 0 64 64"><defs><style>.a{fill:#ffc239;}</style></defs><title>logo-dordev</title><path class="a" d="M34.28,15.81S50.45,31.94,19.94,32.39L17.35,43.61a31.06,31.06,0,0,0,6.74-1.4A37.7,37.7,0,0,0,44.84,26.58Z"/><path class="a" d="M25.23,32.12s-2.47.2-2.47-3.18L21.1,33.35,24.61,33Z"/><path class="a" d="M36.19,48.57c-2.51,1.76-9.72-3.07-9.14-5.76.06-.31.43-1.79,2.89-2.93L19.4,41.31,31.1,56.94Z"/><path class="a" d="M40.77,33.09S40.61,32,40,32.64l1.07-2.93.78,3.38Z"/><path class="a" d="M28.18,4.83H17.08c-1.11,0-4.51-1.18-4.51,31.09,0,24.49,2,23.25,3.59,23.25h7.91a9,9,0,0,1-2.57-5.62s5.64,6.18,14,5.49C46.92,57.92,51.43,49,51.43,38.4,51.43,13.91,36.47,4.83,28.18,4.83Zm2.55,46c-3.66,0-8-1.7-8-16.4V25.07c0-4.11.91-12.53,5.48-12.53,4.25,0,12.61,7.05,12.61,23.18C40.85,47.48,34.25,50.81,30.73,50.81Z"/></svg>